<?xml version="1.0" encoding="utf-8"?>
<!-- Generator: Adobe Illustrator 15.0.2, SVG Export Plug-In . SVG Version: 6.00 Build 0)  -->
<!DOCTYPE svg PUBLIC "-//W3C//DTD SVG 1.1//EN" "http://www.w3.org/Graphics/SVG/1.1/DTD/svg11.dtd">
<svg version="1.1" id="Ebene_1" xmlns="http://www.w3.org/2000/svg" xmlns:xlink="http://www.w3.org/1999/xlink" x="0px" y="0px"
     width="50px" height="50px" viewBox="0 0 50 50" enable-background="new 0 0 50 50" xml:space="preserve">
<path fill="#729100" d="M24.999,0.104C11.192,0.104,0,11.297,0,25.104c0,13.808,11.192,25,24.999,25
	c13.809,0,25.001-11.192,25.001-25C50,11.297,38.808,0.104,24.999,0.104z M27.152,27.586l-0.994,0.781l0.425,0.425l-0.781-0.142
	l-2.481-0.923l-0.23,0.073L23,26.877V26h-2.233l-0.709-0.271l-2.271,0.433l-1.773-0.175l-0.779,0.412l-0.497,0.063l-0.284,0.916
	l-1.632,1.135l-2.271,1.7l-0.142,2.198l-0.639,1.418l0.071,0.851l0.567,0.994l1.632,2.766l1.702,0.781l2.838,0.214l0.496-0.143
	l2.128,0.143l0.852,0.85l1.205,0.497l0.142,2.057l1.278,1.632l1.205,2.128l-1.063,1.276l1.087,1.691
	C10.807,49.09,0.327,38.323,0.327,25.104c0-5.191,1.621-10.001,4.377-13.963l0.316,0.237l-0.191,0.767l0.702,0.192l0.384-1.021
	L6,11.251l0.999-0.169l0.638,0.692c0,0-0.765,0.185-1.02,0.185c-0.256,0-0.129,1.019-0.129,1.019l0.894,0.317l0.576-1.066
	l1.339-1.487l0.638-1.979l1.214-1.15l-0.703-0.508l0.767-0.511l0.063-0.703L9.041,6.526l-0.07-0.084
	c1.218-1.033,2.534-1.951,3.939-2.732l1.048,0.702L13.255,6h-1.404l-0.256,1h1.149l1.66-1.161l1.148-1.22l0.19-1.12l-1.659-0.145
	l1.149-0.775l1.085,0.188l-0.19,1.145l1.468-0.895l0.255,0.702l0.32,1.022l-0.83,1.021l-0.895,0.83l-1.341-0.192l0.639,1.34
	l-1.213-0.191l-2.042,2.107l0.51,0.703l1.66-0.129l1.404-0.448l1.788-0.19l0.829-0.191c0,0,0-0.511-0.063-0.83
	c-0.063-0.319,0.639,0.063,0.639,0.063l0.767-0.446l0.574-1.788l2.106-0.959l-0.319-0.509l0.512-0.64l-1.66-0.255l0.446-0.485
	L19.575,3h-1.086l0.384-1.11l0.446-0.524l-0.036-0.074c1.777-0.41,3.504-0.652,5.406-0.652C27.652,0.64,31,1.167,33,2.132v0.141
	V2.192v0.639v0.284v0.567l0.125,0.497l-1.391-0.78l-0.907,0.426l0.396,0.993l0.198,1.134l0.561,0.64l1.342,0.212l-0.285,0.567
	l-0.285,0.852l1.206,0.78l-0.071,0.354L31.62,7.441l-0.142,0.71l0.992,0.992l0.567,0.213l-1.276,0.284l-0.142,0.639l-0.922-0.923
	l-0.567-1.205l-0.214-1.206L29.35,7.654l0.426,1.702l0.709,0.498l-0.283,1.63l-0.426-0.213l0.07,0.852l-0.639-0.135L28.568,11H27.79
	l-1.135-0.078l-1.137,0.104l-1.063,0.868l-0.709,1.213l-1.047,1.14L23,14.889v0.781l-0.089,0.779l0.488-0.567l0.103,0.425l0.3,0.639
	l0.043,0.143l0.341,0.426l0.631-0.425l-0.074-1.561l0.777-0.994c0,0,0.039-0.168,0.083-0.362c0.061-0.259,0.129-0.56,0.129-0.56
	l0.282-0.781l0.498,0.072l-0.142,0.639l-0.285,1.417l1.35-0.141l0.496,0.141l-1.065,0.285l0.143,0.709l-1.207,0.78l0.072,0.781
	l-1.063,0.284l-0.213,0.526L23.746,18H23l-2-0.272l-0.003,1.42l-1.109,0.354l-0.483,0.496l-1.447-0.354l-0.086,0.638l0.916,0.356
	l-0.075,1.275l-2.556-0.07l-0.356,0.566l-0.355,0.994l-0.427,0.852l0.639,0.709l0.71,0.851l2.271-0.711l0.144-0.851l0.496-0.426
	l0.852-0.284l-0.07-0.566l0.78-0.213l1.134-0.212l0.71,0.851l1.014,0.923L24,25.245v0.426l0.973-0.426l-0.222-0.638l0.208-0.709
	l-0.605-0.284l-0.553-0.779l0.364-1.137l0.642,0.923l0.923,0.709l0.356,1.277l0.922,0.709l0.215,0.781l0.426-0.923l-0.143-0.425
	l0.213-0.355l1.346-1.135l0.285-1.419l0.567-0.426l0.71,0.071l1.063-1.065l-0.09,0.852L33,21.769V22h-0.954l-1.915,1.268
	l-1.562,0.99l0.426,0.99l1.418,0.318l0.781,0.372l0.852-0.559l0.07,2.417l-2.413,0.499L27.152,27.586z M33.199,48.111l2.96-2.152
	l-1.063-2.626l3.405-4.468l1.063-2.837l0.496-1.562l-1.771,0.853l-1.065,0.212l-2.623-1.632l-0.781-1.773l-0.993-0.993l-1.276-2.836
	l1.063,0.85l1.987,2.199l0.709,0.994l1.417,0.709l0.427,1.844l1.703-1.134l2.057-2.555l0.993-2.624l-0.781-0.637l-0.426-0.781
	l-0.496,0.922l-0.993,1.134l-1.419-1.561l-0.425-1.204l0.992,0.212l0.993,0.497l1.419-0.497l0.852,0.284l2.269-1.561l1.279,0.709
	l0.779-0.426l1.696,2.67l0.84-0.801l0.017-1.018l0.07-3.051l0.521-1.445c0.127,1.009,0.199,2.034,0.199,3.077
	C49.293,35.678,42.59,44.687,33.199,48.111z M19.938,16.709l-0.561,0.233l-0.113-0.936l0.674-0.353l-0.447-1.173l2.034-0.4
	l-0.013,1.573l-0.786,1.759L19.938,16.709z"/>
</svg>
