<?xml version="1.0" encoding="UTF-8" standalone="no"?>
<!-- Created with Inkscape (http://www.inkscape.org/) -->

<svg
   xmlns:dc="http://purl.org/dc/elements/1.1/"
   xmlns:cc="http://creativecommons.org/ns#"
   xmlns:rdf="http://www.w3.org/1999/02/22-rdf-syntax-ns#"
   xmlns:svg="http://www.w3.org/2000/svg"
   xmlns="http://www.w3.org/2000/svg"
   xmlns:sodipodi="http://sodipodi.sourceforge.net/DTD/sodipodi-0.dtd"
   xmlns:inkscape="http://www.inkscape.org/namespaces/inkscape"
   width="64px"
   height="64px"
   id="svg2993"
   version="1.1"
   inkscape:version="0.48.2 r9819"
   sodipodi:docname="button.png">
  <defs
     id="defs2995" />
  <sodipodi:namedview
     id="base"
     pagecolor="#ffffff"
     bordercolor="#666666"
     borderopacity="1.0"
     inkscape:pageopacity="0.0"
     inkscape:pageshadow="2"
     inkscape:zoom="5.5"
     inkscape:cx="-43.909091"
     inkscape:cy="32"
     inkscape:current-layer="layer1"
     showgrid="true"
     inkscape:document-units="px"
     inkscape:grid-bbox="true"
     inkscape:window-width="1920"
     inkscape:window-height="1138"
     inkscape:window-x="-8"
     inkscape:window-y="-8"
     inkscape:window-maximized="1" />
  <metadata
     id="metadata2998">
    <rdf:RDF>
      <cc:Work
         rdf:about="">
        <dc:format>image/svg+xml</dc:format>
        <dc:type
           rdf:resource="http://purl.org/dc/dcmitype/StillImage" />
        <dc:title></dc:title>
      </cc:Work>
    </rdf:RDF>
  </metadata>
  <g
     id="layer1"
     inkscape:label="Layer 1"
     inkscape:groupmode="layer">
    <rect
       style="fill:#0066ff"
       id="rect3003"
       width="64.545456"
       height="64.545456"
       x="0.01363654"
       y="0" />
    <path
       id="path3015"
       d="m 32.28532,5.9935693 c -14.513453,0 -26.2781236,11.7657187 -26.2781236,26.2791677 0,14.5145 11.7646706,26.27915 26.2781236,26.27915 14.51555,0 26.280213,-11.76465 26.280213,-26.27915 0,-14.513449 -11.764663,-26.2791677 -26.280213,-26.2791677 z m 2.263158,28.8881497 -1.044865,0.820962 0.446741,0.446744 -0.820963,-0.149247 -2.607931,-0.970229 -0.241759,0.07678 -0.09566,-0.970207 v -0.921889 h -2.347274 l -0.745262,-0.284864 -2.387199,0.455145 -1.863715,-0.183942 -0.818856,0.433084 -0.522448,0.06628 -0.298524,0.962851 -1.715494,1.19309 -2.387199,1.786967 -0.149273,2.310468 -0.671697,1.490554 0.0747,0.894545 0.596018,1.044854 1.715507,2.907536 1.789071,0.820963 2.983221,0.224949 0.521388,-0.150327 2.236875,0.150327 0.895604,0.893484 1.266657,0.522448 0.149248,2.162242 1.343405,1.7155 1.266658,2.236892 -1.117399,1.341283 1.142607,1.77752 C 17.367157,57.486016 6.3509298,46.168111 6.3509298,32.272737 c 0,-5.456612 1.7039407,-10.512721 4.6009562,-14.67743 l 0.332168,0.249111 -0.200773,0.80625 0.737919,0.201829 0.403648,-1.073255 0.08935,-0.06821 1.050118,-0.177646 0.670628,0.727406 c 0,0 -0.804125,0.194456 -1.072175,0.194456 -0.2691,0 -0.135602,1.071146 -0.135602,1.071146 l 0.939726,0.333222 0.60547,-1.120545 1.407532,-1.563097 0.670649,-2.080253 1.276104,-1.208835 -0.738953,-0.533991 0.806212,-0.537158 0.06627,-0.738964 -2.34934,0.667494 -0.07345,-0.08825 c 1.28031,-1.085871 2.663646,-2.050839 4.140524,-2.8718044 l 1.10162,0.7379204 -0.738963,1.669256 h -1.47588 l -0.269091,1.051163 h 1.207791 l 1.74492,-1.22042 1.206743,-1.282427 0.199717,-1.1773064 -1.743882,-0.152424 1.207792,-0.814649 1.140506,0.197619 -0.199713,1.203589 1.543114,-0.940792 0.268052,0.73791 0.336369,1.0742994 -0.872473,1.073237 -0.940792,0.872465 -1.409634,-0.201825 0.671716,1.408572 -1.27508,-0.20078 -2.146472,2.214816 0.536083,0.738972 1.744954,-0.135611 1.475842,-0.470913 1.879487,-0.199731 0.871404,-0.200763 c 0,0 0,-0.537146 -0.06628,-0.872465 -0.06624,-0.335326 0.671714,0.06627 0.671714,0.06627 l 0.806231,-0.468857 0.603372,-1.879497 2.213762,-1.008075 -0.335322,-0.535047 0.538211,-0.672745 -1.744961,-0.26805 0.468842,-0.5098114 -2.213757,-0.580243 h -1.141566 l 0.403628,-1.166825 0.468843,-0.55081 -0.03795,-0.07778 c 1.867936,-0.430981 3.683307,-0.685363 5.682607,-0.685363 3.114621,0 6.633919,0.553965 8.736257,1.568341 v 0.148186 -0.08515 0.671697 0.298535 0.596012 l 0.131399,0.5224244 -1.462179,-0.8199124 -0.953413,0.447799 0.416273,1.0438054 0.208124,1.192035 0.589699,0.672735 1.410675,0.222848 -0.299593,0.59602 -0.299573,0.895584 1.267705,0.819913 -0.0747,0.372124 -2.385109,-2.01405 -0.149252,0.746342 1.042754,1.042753 0.596002,0.223901 -1.341276,0.298519 -0.149278,0.671697 -0.969166,-0.970216 -0.596005,-1.266653 -0.224954,-1.267706 -0.594964,0.745262 0.44779,1.789097 0.745288,0.52347 -0.297493,1.713402 -0.447795,-0.223899 0.07346,0.895606 -0.671692,-0.141914 -0.671693,-1.038562 h -0.817777 l -1.193063,-0.08203 -1.195182,0.109323 -1.117382,0.912399 -0.74529,1.275068 -1.100573,1.198328 0.316406,0.674849 v 0.820957 l -0.09351,0.818864 0.51298,-0.596015 0.10827,0.446751 0.315338,0.671706 0.04513,0.150301 0.358458,0.447802 0.663287,-0.446749 -0.07765,-1.640857 0.816771,-1.044859 c 0,0 0.0409,-0.176607 0.08729,-0.380523 0.0642,-0.272255 0.135605,-0.588662 0.135605,-0.588662 l 0.296408,-0.820967 0.5235,0.07578 -0.149276,0.671706 -0.299571,1.489503 1.419068,-0.148216 0.521381,0.148216 -1.11949,0.299576 0.1503,0.745285 -1.268759,0.819899 0.07578,0.820955 -1.117409,0.298548 -0.223899,0.552914 -0.89558,-0.34163 H 30.1841 l -2.102331,-0.285928 -0.0037,1.492657 -1.16575,0.372109 -0.507715,0.521395 -1.52103,-0.372115 -0.09043,0.670637 0.962869,0.374222 -0.07872,1.340227 -2.686783,-0.07347 -0.374208,0.594954 -0.373167,1.044857 -0.448847,0.895604 0.671694,0.745263 0.746325,0.894546 2.387203,-0.747372 0.151367,-0.894544 0.521379,-0.447798 0.895591,-0.298542 -0.07346,-0.594959 0.819916,-0.2239 1.192016,-0.222843 0.746329,0.894544 1.065882,0.970224 0.3164,0.966032 v 0.447792 l 1.022776,-0.447801 -0.233364,-0.670655 0.21864,-0.745267 -0.635946,-0.298534 -0.581303,-0.818855 0.382629,-1.19518 0.674846,0.970229 0.970228,0.745267 0.374221,1.34234 0.969169,0.745287 0.226004,0.820962 0.447798,-0.970237 -0.150318,-0.446749 0.223898,-0.37316 1.414872,-1.193061 0.29958,-1.491606 0.596014,-0.447801 0.746323,0.0747 1.117396,-1.119493 -0.09455,0.895593 1.471632,0.522424 v 0.242825 h -1.002827 l -2.012984,1.332881 -1.641923,1.040653 0.447795,1.040657 1.490553,0.334271 0.820969,0.391034 0.89559,-0.58761 0.07346,2.540665 -2.536463,0.524546 -2.681524,-0.745291 z m 6.356397,21.575194 3.111466,-2.262108 -1.117395,-2.760365 3.579216,-4.69661 1.1174,-2.98216 0.521374,-1.641916 -1.861619,0.896661 -1.119485,0.222845 -2.757211,-1.715503 -0.82097,-1.863727 -1.043812,-1.043807 -1.341275,-2.981109 1.117379,0.893485 2.088678,2.311525 0.745273,1.044858 1.489504,0.745269 0.448855,1.938361 1.790126,-1.192024 2.16225,-2.68575 1.043809,-2.758261 -0.820963,-0.669587 -0.447797,-0.820968 -0.521373,0.969195 -1.043807,1.192016 -1.491607,-1.640859 -0.446743,-1.265607 1.042759,0.222846 1.04381,0.522409 1.491604,-0.522409 0.895588,0.298515 2.385095,-1.640861 1.344444,0.745285 0.818857,-0.447801 1.782785,2.80662 0.882979,-0.841995 0.01803,-1.070087 0.07346,-3.207102 0.54766,-1.51895 c 0.133502,1.06064 0.209177,2.138072 0.209177,3.234451 0,11.116084 -7.045968,20.586037 -16.917482,24.185225 z m -13.939507,-33.008719 -0.589703,0.24492 -0.118779,-0.983883 0.708482,-0.37106 -0.469876,-1.23303 2.138077,-0.420455 -0.01362,1.653485 -0.826217,1.84899 -0.82832,-0.738967 z"
       inkscape:connector-curvature="0"
       style="fill:#ffffff;fill-opacity:1;stroke:#ffffff;stroke-width:0.50566292;stroke-miterlimit:4;stroke-opacity:1;stroke-dasharray:none" />
  </g>
</svg>
